<?xml version="1.0" encoding="UTF-8" standalone="no"?>
<!DOCTYPE svg PUBLIC "-//W3C//DTD SVG 1.1//EN" "http://www.w3.org/Graphics/SVG/1.1/DTD/svg11.dtd">
<svg width="100%" height="100%" viewBox="0 0 2166 2044" version="1.1" xmlns="http://www.w3.org/2000/svg" xmlns:xlink="http://www.w3.org/1999/xlink" xml:space="preserve" xmlns:serif="http://www.serif.com/" style="fill-rule:evenodd;clip-rule:evenodd;stroke-linejoin:round;stroke-miterlimit:2;">
    <g transform="matrix(1,0,0,1,-536.609,-1749.4)">
        <g transform="matrix(0.784337,0,0,0.943788,2221.86,2721.52)">
            <rect id="Logo-Image" serif:id="Logo Image" x="-2148.63" y="-1030.02" width="2761.2" height="2165.43" style="fill:none;"/>
            <g id="Logo-Image1" serif:id="Logo Image">
                <g transform="matrix(9.16732,1.99194,-2.39689,7.61852,-6111.73,-6172.88)">
                    <g id="Image">
                        <path d="M756.22,512.87C749.153,512.183 742.036,512.183 734.969,512.87L730.243,521.897C722.881,523.024 715.666,524.957 708.727,527.662L700.121,522.207C693.657,525.146 687.494,528.704 681.717,532.833L682.138,543.014C676.326,547.67 671.044,552.952 666.388,558.764L656.206,558.343C652.078,564.12 648.519,570.284 645.581,576.747L651.036,585.354C648.331,592.292 646.397,599.508 645.271,606.869L636.243,611.595C635.556,618.662 635.556,625.779 636.243,632.846L645.271,637.572C646.397,644.934 648.331,652.149 651.036,659.087L645.581,667.694C648.519,674.158 652.078,680.321 656.206,686.098L666.388,685.677C671.044,691.489 676.326,696.771 682.138,701.427L681.717,711.609C687.494,715.737 693.657,719.295 700.121,722.234L708.727,716.779C715.666,719.484 722.881,721.417 730.243,722.544L734.969,731.572C742.036,732.258 749.153,732.258 756.22,731.572L760.946,722.544C768.307,721.417 775.522,719.484 782.461,716.779L791.068,722.234C797.531,719.295 803.695,715.737 809.472,711.609L809.051,701.427C814.863,696.771 820.145,691.489 824.801,685.677L834.982,686.098C839.11,680.321 842.669,674.158 845.608,667.694L840.152,659.087C842.858,652.149 844.791,644.934 845.917,637.572L854.945,632.846C855.632,625.779 855.632,618.662 854.945,611.595L845.917,606.869C844.791,599.508 842.858,592.292 840.152,585.354L845.608,576.747C842.669,570.284 839.11,564.12 834.982,558.343L824.801,558.764C820.145,552.952 814.863,547.67 809.051,543.014L809.472,532.833C803.695,528.704 797.531,525.146 791.068,522.207L782.461,527.662C775.522,524.957 768.307,523.024 760.946,521.897L756.22,512.87Z" style="fill:rgb(37,125,220);"/>
                    </g>
                </g>
            </g>
        </g>
    </g>
</svg>
