<?xml version="1.0" encoding="UTF-8" standalone="no"?>
<!DOCTYPE svg PUBLIC "-//W3C//DTD SVG 1.1//EN" "http://www.w3.org/Graphics/SVG/1.1/DTD/svg11.dtd">
<svg width="100%" height="100%" viewBox="0 0 2273 862" version="1.1" xmlns="http://www.w3.org/2000/svg" xmlns:xlink="http://www.w3.org/1999/xlink" xml:space="preserve" xmlns:serif="http://www.serif.com/" style="fill-rule:evenodd;clip-rule:evenodd;stroke-linejoin:round;stroke-miterlimit:2;">
    <g transform="matrix(1,0,0,1,-2809,-952)">
        <g transform="matrix(1,0,0,0.49211,3659.24,64.3559)">
            <rect id="Black-BG-White-Text" serif:id="Black BG White Text" x="-849.647" y="1804.97" width="2271.81" height="1749.29" style="fill:none;"/>
            <g id="Black-BG-White-Text1" serif:id="Black BG White Text">
                <g transform="matrix(0.608467,0,0,1.26308,-127.101,1730.4)">
                    <g transform="matrix(194.093,0,0,190,32.0808,535.303)">
                        <path d="M0.719,-0.35C0.719,-0.298 0.71,-0.251 0.694,-0.207C0.677,-0.163 0.654,-0.125 0.624,-0.093C0.594,-0.06 0.558,-0.035 0.517,-0.017C0.476,0.001 0.431,0.01 0.382,0.01C0.333,0.01 0.288,0.001 0.247,-0.017C0.206,-0.035 0.17,-0.06 0.14,-0.093C0.11,-0.125 0.086,-0.163 0.07,-0.207C0.053,-0.251 0.045,-0.298 0.045,-0.35C0.045,-0.402 0.053,-0.449 0.07,-0.493C0.086,-0.537 0.11,-0.575 0.14,-0.607C0.17,-0.64 0.206,-0.665 0.247,-0.683C0.288,-0.701 0.333,-0.71 0.382,-0.71C0.431,-0.71 0.476,-0.701 0.517,-0.683C0.558,-0.665 0.594,-0.64 0.624,-0.607C0.654,-0.575 0.677,-0.537 0.694,-0.493C0.71,-0.449 0.719,-0.402 0.719,-0.35ZM0.633,-0.35C0.633,-0.404 0.622,-0.453 0.6,-0.495C0.579,-0.537 0.549,-0.57 0.512,-0.594C0.474,-0.618 0.431,-0.63 0.382,-0.63C0.333,-0.63 0.289,-0.618 0.252,-0.594C0.214,-0.57 0.184,-0.537 0.163,-0.495C0.142,-0.453 0.131,-0.405 0.131,-0.35C0.131,-0.296 0.142,-0.247 0.163,-0.205C0.184,-0.163 0.214,-0.13 0.252,-0.106C0.289,-0.082 0.333,-0.07 0.382,-0.07C0.431,-0.07 0.474,-0.082 0.512,-0.106C0.549,-0.13 0.579,-0.163 0.6,-0.205C0.622,-0.247 0.633,-0.296 0.633,-0.35Z" style="fill:white;fill-rule:nonzero;"/>
                    </g>
                    <g transform="matrix(194.093,0,0,190,185.026,535.303)">
                        <path d="M0.362,-0.7C0.398,-0.7 0.431,-0.691 0.461,-0.673C0.49,-0.655 0.513,-0.63 0.53,-0.599C0.547,-0.568 0.556,-0.532 0.556,-0.492C0.556,-0.453 0.547,-0.417 0.53,-0.385C0.513,-0.353 0.49,-0.328 0.461,-0.309C0.431,-0.29 0.398,-0.281 0.362,-0.281L0.159,-0.281L0.166,-0.293L0.166,-0.041C0.166,-0.029 0.162,-0.02 0.155,-0.012C0.147,-0.004 0.138,-0 0.127,-0C0.115,-0 0.105,-0.004 0.098,-0.012C0.091,-0.02 0.088,-0.029 0.088,-0.041L0.088,-0.66C0.088,-0.671 0.091,-0.68 0.099,-0.688C0.107,-0.696 0.117,-0.7 0.128,-0.7L0.362,-0.7ZM0.362,-0.358C0.384,-0.358 0.403,-0.364 0.42,-0.376C0.437,-0.388 0.45,-0.404 0.46,-0.425C0.47,-0.445 0.475,-0.468 0.475,-0.492C0.475,-0.517 0.47,-0.539 0.46,-0.559C0.45,-0.578 0.437,-0.594 0.42,-0.605C0.403,-0.617 0.384,-0.623 0.362,-0.623L0.159,-0.623L0.166,-0.634L0.166,-0.348L0.159,-0.358L0.362,-0.358Z" style="fill:white;fill-rule:nonzero;"/>
                    </g>
                    <g transform="matrix(194.093,0,0,190,304.199,535.303)">
                        <path d="M0.128,-0.7L0.484,-0.7C0.495,-0.7 0.505,-0.696 0.513,-0.689C0.521,-0.681 0.525,-0.672 0.525,-0.661C0.525,-0.649 0.521,-0.64 0.513,-0.633C0.505,-0.626 0.495,-0.623 0.484,-0.623L0.162,-0.623L0.171,-0.64L0.171,-0.387L0.161,-0.398L0.439,-0.398C0.45,-0.398 0.46,-0.394 0.468,-0.387C0.476,-0.379 0.48,-0.37 0.48,-0.359C0.48,-0.347 0.476,-0.338 0.468,-0.331C0.46,-0.324 0.45,-0.321 0.439,-0.321L0.164,-0.321L0.171,-0.33L0.171,-0.071L0.165,-0.078L0.484,-0.078C0.495,-0.078 0.505,-0.074 0.513,-0.066C0.521,-0.058 0.525,-0.049 0.525,-0.039C0.525,-0.027 0.521,-0.018 0.513,-0.011C0.505,-0.004 0.495,-0 0.484,-0L0.128,-0C0.117,-0 0.107,-0.004 0.099,-0.012C0.091,-0.02 0.088,-0.029 0.088,-0.041L0.088,-0.66C0.088,-0.671 0.091,-0.68 0.099,-0.688C0.107,-0.696 0.117,-0.7 0.128,-0.7Z" style="fill:white;fill-rule:nonzero;"/>
                    </g>
                    <g transform="matrix(194.093,0,0,190,418.131,535.303)">
                        <path d="M0.606,-0.7C0.617,-0.7 0.626,-0.696 0.633,-0.689C0.639,-0.682 0.643,-0.673 0.643,-0.663L0.643,-0.042C0.643,-0.029 0.639,-0.019 0.631,-0.012C0.623,-0.004 0.613,-0 0.602,-0C0.596,-0 0.59,-0.001 0.584,-0.003C0.578,-0.005 0.573,-0.009 0.57,-0.013L0.142,-0.579L0.162,-0.591L0.162,-0.037C0.162,-0.026 0.158,-0.018 0.151,-0.011C0.144,-0.004 0.135,-0 0.124,-0C0.113,-0 0.104,-0.004 0.098,-0.011C0.091,-0.018 0.088,-0.026 0.088,-0.037L0.088,-0.66C0.088,-0.672 0.091,-0.682 0.099,-0.689C0.107,-0.696 0.116,-0.7 0.127,-0.7C0.133,-0.7 0.139,-0.699 0.146,-0.697C0.152,-0.694 0.157,-0.691 0.16,-0.686L0.582,-0.128L0.569,-0.112L0.569,-0.663C0.569,-0.673 0.573,-0.682 0.58,-0.689C0.587,-0.696 0.595,-0.7 0.606,-0.7Z" style="fill:white;fill-rule:nonzero;"/>
                    </g>
                </g>
                <g transform="matrix(1.18263,0,0,2.40318,-149.934,1503.64)">
                    <g transform="matrix(190,0,0,190,32.0808,535.303)">
                        <path d="M0.592,-0.654C0.603,-0.648 0.609,-0.639 0.611,-0.627C0.613,-0.615 0.61,-0.604 0.602,-0.594C0.596,-0.585 0.588,-0.581 0.579,-0.58C0.57,-0.579 0.56,-0.581 0.551,-0.586C0.529,-0.599 0.505,-0.609 0.48,-0.617C0.455,-0.625 0.428,-0.629 0.4,-0.629C0.36,-0.629 0.324,-0.622 0.292,-0.608C0.259,-0.595 0.231,-0.576 0.207,-0.551C0.183,-0.526 0.164,-0.497 0.151,-0.463C0.138,-0.429 0.131,-0.391 0.131,-0.35C0.131,-0.306 0.138,-0.267 0.152,-0.232C0.166,-0.197 0.185,-0.168 0.209,-0.144C0.233,-0.119 0.262,-0.101 0.294,-0.088C0.327,-0.075 0.362,-0.069 0.4,-0.069C0.427,-0.069 0.454,-0.073 0.479,-0.08C0.504,-0.087 0.528,-0.098 0.551,-0.112C0.56,-0.117 0.569,-0.118 0.579,-0.117C0.588,-0.116 0.596,-0.111 0.603,-0.103C0.611,-0.092 0.614,-0.081 0.612,-0.069C0.61,-0.058 0.603,-0.049 0.593,-0.044C0.576,-0.034 0.557,-0.024 0.536,-0.016C0.514,-0.008 0.492,-0.002 0.469,0.003C0.446,0.008 0.423,0.01 0.4,0.01C0.352,0.01 0.306,0.002 0.264,-0.015C0.221,-0.032 0.184,-0.056 0.151,-0.087C0.118,-0.118 0.092,-0.156 0.073,-0.2C0.054,-0.244 0.045,-0.294 0.045,-0.35C0.045,-0.402 0.054,-0.449 0.072,-0.493C0.09,-0.536 0.115,-0.574 0.147,-0.606C0.179,-0.638 0.217,-0.663 0.26,-0.681C0.303,-0.699 0.349,-0.708 0.4,-0.708C0.435,-0.708 0.468,-0.703 0.501,-0.694C0.534,-0.684 0.564,-0.671 0.592,-0.654Z" style="fill:white;fill-rule:nonzero;"/>
                    </g>
                    <g transform="matrix(190,0,0,190,161.661,535.303)">
                        <path d="M0.719,-0.35C0.719,-0.298 0.71,-0.251 0.694,-0.207C0.677,-0.163 0.654,-0.125 0.624,-0.093C0.594,-0.06 0.558,-0.035 0.517,-0.017C0.476,0.001 0.431,0.01 0.382,0.01C0.333,0.01 0.288,0.001 0.247,-0.017C0.206,-0.035 0.17,-0.06 0.14,-0.093C0.11,-0.125 0.086,-0.163 0.07,-0.207C0.053,-0.251 0.045,-0.298 0.045,-0.35C0.045,-0.402 0.053,-0.449 0.07,-0.493C0.086,-0.537 0.11,-0.575 0.14,-0.607C0.17,-0.64 0.206,-0.665 0.247,-0.683C0.288,-0.701 0.333,-0.71 0.382,-0.71C0.431,-0.71 0.476,-0.701 0.517,-0.683C0.558,-0.665 0.594,-0.64 0.624,-0.607C0.654,-0.575 0.677,-0.537 0.694,-0.493C0.71,-0.449 0.719,-0.402 0.719,-0.35ZM0.633,-0.35C0.633,-0.404 0.622,-0.453 0.6,-0.495C0.579,-0.537 0.549,-0.57 0.512,-0.594C0.474,-0.618 0.431,-0.63 0.382,-0.63C0.333,-0.63 0.289,-0.618 0.252,-0.594C0.214,-0.57 0.184,-0.537 0.163,-0.495C0.142,-0.453 0.131,-0.405 0.131,-0.35C0.131,-0.296 0.142,-0.247 0.163,-0.205C0.184,-0.163 0.214,-0.13 0.252,-0.106C0.289,-0.082 0.333,-0.07 0.382,-0.07C0.431,-0.07 0.474,-0.082 0.512,-0.106C0.549,-0.13 0.579,-0.163 0.6,-0.205C0.622,-0.247 0.633,-0.296 0.633,-0.35Z" style="fill:white;fill-rule:nonzero;"/>
                    </g>
                    <g transform="matrix(190,0,0,190,311.381,535.303)">
                        <path d="M0.129,-0.701C0.135,-0.701 0.141,-0.699 0.148,-0.696C0.155,-0.693 0.161,-0.688 0.165,-0.683L0.43,-0.282L0.395,-0.283L0.663,-0.683C0.672,-0.695 0.683,-0.701 0.697,-0.701C0.707,-0.7 0.717,-0.696 0.725,-0.689C0.733,-0.681 0.737,-0.672 0.737,-0.66L0.737,-0.041C0.737,-0.029 0.733,-0.02 0.725,-0.012C0.717,-0.004 0.707,-0 0.695,-0C0.683,-0 0.673,-0.004 0.665,-0.012C0.657,-0.02 0.653,-0.029 0.653,-0.041L0.653,-0.584L0.678,-0.579L0.442,-0.22C0.438,-0.215 0.433,-0.211 0.428,-0.208C0.422,-0.204 0.416,-0.203 0.41,-0.203C0.404,-0.203 0.398,-0.204 0.392,-0.208C0.386,-0.211 0.381,-0.215 0.377,-0.22L0.144,-0.579L0.165,-0.605L0.165,-0.041C0.165,-0.029 0.161,-0.02 0.154,-0.012C0.147,-0.004 0.137,-0 0.126,-0C0.115,-0 0.105,-0.004 0.098,-0.012C0.091,-0.02 0.088,-0.029 0.088,-0.041L0.088,-0.66C0.088,-0.671 0.091,-0.68 0.099,-0.688C0.107,-0.696 0.117,-0.701 0.129,-0.701Z" style="fill:white;fill-rule:nonzero;"/>
                    </g>
                    <g transform="matrix(190,0,0,190,472.691,535.303)">
                        <path d="M0.362,-0.7C0.398,-0.7 0.431,-0.691 0.461,-0.673C0.49,-0.655 0.513,-0.63 0.53,-0.599C0.547,-0.568 0.556,-0.532 0.556,-0.492C0.556,-0.453 0.547,-0.417 0.53,-0.385C0.513,-0.353 0.49,-0.328 0.461,-0.309C0.431,-0.29 0.398,-0.281 0.362,-0.281L0.159,-0.281L0.166,-0.293L0.166,-0.041C0.166,-0.029 0.162,-0.02 0.155,-0.012C0.147,-0.004 0.138,-0 0.127,-0C0.115,-0 0.105,-0.004 0.098,-0.012C0.091,-0.02 0.088,-0.029 0.088,-0.041L0.088,-0.66C0.088,-0.671 0.091,-0.68 0.099,-0.688C0.107,-0.696 0.117,-0.7 0.128,-0.7L0.362,-0.7ZM0.362,-0.358C0.384,-0.358 0.403,-0.364 0.42,-0.376C0.437,-0.388 0.45,-0.404 0.46,-0.425C0.47,-0.445 0.475,-0.468 0.475,-0.492C0.475,-0.517 0.47,-0.539 0.46,-0.559C0.45,-0.578 0.437,-0.594 0.42,-0.605C0.403,-0.617 0.384,-0.623 0.362,-0.623L0.159,-0.623L0.166,-0.634L0.166,-0.348L0.159,-0.358L0.362,-0.358Z" style="fill:white;fill-rule:nonzero;"/>
                    </g>
                    <g transform="matrix(190,0,0,190,589.351,535.303)">
                        <path d="M0.719,-0.35C0.719,-0.298 0.71,-0.251 0.694,-0.207C0.677,-0.163 0.654,-0.125 0.624,-0.093C0.594,-0.06 0.558,-0.035 0.517,-0.017C0.476,0.001 0.431,0.01 0.382,0.01C0.333,0.01 0.288,0.001 0.247,-0.017C0.206,-0.035 0.17,-0.06 0.14,-0.093C0.11,-0.125 0.086,-0.163 0.07,-0.207C0.053,-0.251 0.045,-0.298 0.045,-0.35C0.045,-0.402 0.053,-0.449 0.07,-0.493C0.086,-0.537 0.11,-0.575 0.14,-0.607C0.17,-0.64 0.206,-0.665 0.247,-0.683C0.288,-0.701 0.333,-0.71 0.382,-0.71C0.431,-0.71 0.476,-0.701 0.517,-0.683C0.558,-0.665 0.594,-0.64 0.624,-0.607C0.654,-0.575 0.677,-0.537 0.694,-0.493C0.71,-0.449 0.719,-0.402 0.719,-0.35ZM0.633,-0.35C0.633,-0.404 0.622,-0.453 0.6,-0.495C0.579,-0.537 0.549,-0.57 0.512,-0.594C0.474,-0.618 0.431,-0.63 0.382,-0.63C0.333,-0.63 0.289,-0.618 0.252,-0.594C0.214,-0.57 0.184,-0.537 0.163,-0.495C0.142,-0.453 0.131,-0.405 0.131,-0.35C0.131,-0.296 0.142,-0.247 0.163,-0.205C0.184,-0.163 0.214,-0.13 0.252,-0.106C0.289,-0.082 0.333,-0.07 0.382,-0.07C0.431,-0.07 0.474,-0.082 0.512,-0.106C0.549,-0.13 0.579,-0.163 0.6,-0.205C0.622,-0.247 0.633,-0.296 0.633,-0.35Z" style="fill:white;fill-rule:nonzero;"/>
                    </g>
                    <g transform="matrix(190,0,0,190,739.071,535.303)">
                        <path d="M0.606,-0.7C0.617,-0.7 0.626,-0.696 0.633,-0.689C0.639,-0.682 0.643,-0.673 0.643,-0.663L0.643,-0.042C0.643,-0.029 0.639,-0.019 0.631,-0.012C0.623,-0.004 0.613,-0 0.602,-0C0.596,-0 0.59,-0.001 0.584,-0.003C0.578,-0.005 0.573,-0.009 0.57,-0.013L0.142,-0.579L0.162,-0.591L0.162,-0.037C0.162,-0.026 0.158,-0.018 0.151,-0.011C0.144,-0.004 0.135,-0 0.124,-0C0.113,-0 0.104,-0.004 0.098,-0.011C0.091,-0.018 0.088,-0.026 0.088,-0.037L0.088,-0.66C0.088,-0.672 0.091,-0.682 0.099,-0.689C0.107,-0.696 0.116,-0.7 0.127,-0.7C0.133,-0.7 0.139,-0.699 0.146,-0.697C0.152,-0.694 0.157,-0.691 0.16,-0.686L0.582,-0.128L0.569,-0.112L0.569,-0.663C0.569,-0.673 0.573,-0.682 0.58,-0.689C0.587,-0.696 0.595,-0.7 0.606,-0.7Z" style="fill:white;fill-rule:nonzero;"/>
                    </g>
                    <g transform="matrix(190,0,0,190,880.621,535.303)">
                        <path d="M0.128,-0.7L0.484,-0.7C0.495,-0.7 0.505,-0.696 0.513,-0.689C0.521,-0.681 0.525,-0.672 0.525,-0.661C0.525,-0.649 0.521,-0.64 0.513,-0.633C0.505,-0.626 0.495,-0.623 0.484,-0.623L0.162,-0.623L0.171,-0.64L0.171,-0.387L0.161,-0.398L0.439,-0.398C0.45,-0.398 0.46,-0.394 0.468,-0.387C0.476,-0.379 0.48,-0.37 0.48,-0.359C0.48,-0.347 0.476,-0.338 0.468,-0.331C0.46,-0.324 0.45,-0.321 0.439,-0.321L0.164,-0.321L0.171,-0.33L0.171,-0.071L0.165,-0.078L0.484,-0.078C0.495,-0.078 0.505,-0.074 0.513,-0.066C0.521,-0.058 0.525,-0.049 0.525,-0.039C0.525,-0.027 0.521,-0.018 0.513,-0.011C0.505,-0.004 0.495,-0 0.484,-0L0.128,-0C0.117,-0 0.107,-0.004 0.099,-0.012C0.091,-0.02 0.088,-0.029 0.088,-0.041L0.088,-0.66C0.088,-0.671 0.091,-0.68 0.099,-0.688C0.107,-0.696 0.117,-0.7 0.128,-0.7Z" style="fill:white;fill-rule:nonzero;"/>
                    </g>
                    <g transform="matrix(190,0,0,190,992.151,535.303)">
                        <path d="M0.606,-0.7C0.617,-0.7 0.626,-0.696 0.633,-0.689C0.639,-0.682 0.643,-0.673 0.643,-0.663L0.643,-0.042C0.643,-0.029 0.639,-0.019 0.631,-0.012C0.623,-0.004 0.613,-0 0.602,-0C0.596,-0 0.59,-0.001 0.584,-0.003C0.578,-0.005 0.573,-0.009 0.57,-0.013L0.142,-0.579L0.162,-0.591L0.162,-0.037C0.162,-0.026 0.158,-0.018 0.151,-0.011C0.144,-0.004 0.135,-0 0.124,-0C0.113,-0 0.104,-0.004 0.098,-0.011C0.091,-0.018 0.088,-0.026 0.088,-0.037L0.088,-0.66C0.088,-0.672 0.091,-0.682 0.099,-0.689C0.107,-0.696 0.116,-0.7 0.127,-0.7C0.133,-0.7 0.139,-0.699 0.146,-0.697C0.152,-0.694 0.157,-0.691 0.16,-0.686L0.582,-0.128L0.569,-0.112L0.569,-0.663C0.569,-0.673 0.573,-0.682 0.58,-0.689C0.587,-0.696 0.595,-0.7 0.606,-0.7Z" style="fill:white;fill-rule:nonzero;"/>
                    </g>
                    <g transform="matrix(190,0,0,190,1133.7,535.303)">
                        <path d="M0.305,-0C0.293,-0 0.283,-0.004 0.275,-0.012C0.267,-0.02 0.263,-0.029 0.263,-0.041L0.263,-0.659L0.348,-0.659L0.348,-0.041C0.348,-0.029 0.344,-0.02 0.336,-0.012C0.328,-0.004 0.317,-0 0.305,-0ZM0.073,-0.624C0.062,-0.624 0.052,-0.627 0.044,-0.634C0.036,-0.641 0.033,-0.651 0.033,-0.662C0.033,-0.673 0.036,-0.683 0.044,-0.69C0.052,-0.697 0.062,-0.7 0.073,-0.7L0.538,-0.7C0.549,-0.7 0.559,-0.696 0.567,-0.689C0.575,-0.682 0.579,-0.673 0.579,-0.662C0.579,-0.65 0.575,-0.641 0.567,-0.634C0.559,-0.627 0.549,-0.624 0.538,-0.624L0.073,-0.624Z" style="fill:white;fill-rule:nonzero;"/>
                    </g>
                </g>
                <g transform="matrix(0.625012,0,0,1.37211,856.431,2302.12)">
                    <g transform="matrix(204.369,0,0,190,32.0808,535.303)">
                        <path d="M0.129,-0.701C0.135,-0.701 0.141,-0.699 0.148,-0.696C0.155,-0.693 0.161,-0.688 0.165,-0.683L0.43,-0.282L0.395,-0.283L0.663,-0.683C0.672,-0.695 0.683,-0.701 0.697,-0.701C0.707,-0.7 0.717,-0.696 0.725,-0.689C0.733,-0.681 0.737,-0.672 0.737,-0.66L0.737,-0.041C0.737,-0.029 0.733,-0.02 0.725,-0.012C0.717,-0.004 0.707,-0 0.695,-0C0.683,-0 0.673,-0.004 0.665,-0.012C0.657,-0.02 0.653,-0.029 0.653,-0.041L0.653,-0.584L0.678,-0.579L0.442,-0.22C0.438,-0.215 0.433,-0.211 0.428,-0.208C0.422,-0.204 0.416,-0.203 0.41,-0.203C0.404,-0.203 0.398,-0.204 0.392,-0.208C0.386,-0.211 0.381,-0.215 0.377,-0.22L0.144,-0.579L0.165,-0.605L0.165,-0.041C0.165,-0.029 0.161,-0.02 0.154,-0.012C0.147,-0.004 0.137,-0 0.126,-0C0.115,-0 0.105,-0.004 0.098,-0.012C0.091,-0.02 0.088,-0.029 0.088,-0.041L0.088,-0.66C0.088,-0.671 0.091,-0.68 0.099,-0.688C0.107,-0.696 0.117,-0.701 0.129,-0.701Z" style="fill:white;fill-rule:nonzero;"/>
                    </g>
                    <g transform="matrix(204.369,0,0,190,205.59,535.303)">
                        <path d="M0.719,-0.35C0.719,-0.298 0.71,-0.251 0.694,-0.207C0.677,-0.163 0.654,-0.125 0.624,-0.093C0.594,-0.06 0.558,-0.035 0.517,-0.017C0.476,0.001 0.431,0.01 0.382,0.01C0.333,0.01 0.288,0.001 0.247,-0.017C0.206,-0.035 0.17,-0.06 0.14,-0.093C0.11,-0.125 0.086,-0.163 0.07,-0.207C0.053,-0.251 0.045,-0.298 0.045,-0.35C0.045,-0.402 0.053,-0.449 0.07,-0.493C0.086,-0.537 0.11,-0.575 0.14,-0.607C0.17,-0.64 0.206,-0.665 0.247,-0.683C0.288,-0.701 0.333,-0.71 0.382,-0.71C0.431,-0.71 0.476,-0.701 0.517,-0.683C0.558,-0.665 0.594,-0.64 0.624,-0.607C0.654,-0.575 0.677,-0.537 0.694,-0.493C0.71,-0.449 0.719,-0.402 0.719,-0.35ZM0.633,-0.35C0.633,-0.404 0.622,-0.453 0.6,-0.495C0.579,-0.537 0.549,-0.57 0.512,-0.594C0.474,-0.618 0.431,-0.63 0.382,-0.63C0.333,-0.63 0.289,-0.618 0.252,-0.594C0.214,-0.57 0.184,-0.537 0.163,-0.495C0.142,-0.453 0.131,-0.405 0.131,-0.35C0.131,-0.296 0.142,-0.247 0.163,-0.205C0.184,-0.163 0.214,-0.13 0.252,-0.106C0.289,-0.082 0.333,-0.07 0.382,-0.07C0.431,-0.07 0.474,-0.082 0.512,-0.106C0.549,-0.13 0.579,-0.163 0.6,-0.205C0.622,-0.247 0.633,-0.296 0.633,-0.35Z" style="fill:white;fill-rule:nonzero;"/>
                    </g>
                    <g transform="matrix(204.369,0,0,190,366.632,535.303)">
                        <path d="M0.378,-0.7C0.427,-0.7 0.47,-0.691 0.507,-0.672C0.544,-0.654 0.574,-0.628 0.599,-0.596C0.624,-0.563 0.642,-0.525 0.654,-0.483C0.666,-0.441 0.673,-0.397 0.673,-0.35C0.673,-0.286 0.662,-0.227 0.64,-0.174C0.618,-0.121 0.585,-0.079 0.542,-0.047C0.498,-0.016 0.444,-0 0.378,-0L0.128,-0C0.117,-0 0.107,-0.004 0.099,-0.012C0.091,-0.02 0.088,-0.029 0.088,-0.041L0.088,-0.66C0.088,-0.671 0.091,-0.68 0.099,-0.688C0.107,-0.696 0.117,-0.7 0.128,-0.7L0.378,-0.7ZM0.368,-0.078C0.419,-0.078 0.461,-0.09 0.493,-0.115C0.525,-0.139 0.549,-0.172 0.564,-0.214C0.579,-0.255 0.587,-0.3 0.587,-0.35C0.587,-0.386 0.582,-0.42 0.574,-0.453C0.566,-0.486 0.553,-0.515 0.535,-0.541C0.517,-0.566 0.495,-0.586 0.467,-0.601C0.439,-0.615 0.406,-0.623 0.368,-0.623L0.163,-0.623L0.171,-0.631L0.171,-0.068L0.165,-0.078L0.368,-0.078Z" style="fill:white;fill-rule:nonzero;"/>
                    </g>
                    <g transform="matrix(204.369,0,0,190,517.865,535.303)">
                        <path d="M0.128,-0.7L0.484,-0.7C0.495,-0.7 0.505,-0.696 0.513,-0.689C0.521,-0.681 0.525,-0.672 0.525,-0.661C0.525,-0.649 0.521,-0.64 0.513,-0.633C0.505,-0.626 0.495,-0.623 0.484,-0.623L0.162,-0.623L0.171,-0.64L0.171,-0.387L0.161,-0.398L0.439,-0.398C0.45,-0.398 0.46,-0.394 0.468,-0.387C0.476,-0.379 0.48,-0.37 0.48,-0.359C0.48,-0.347 0.476,-0.338 0.468,-0.331C0.46,-0.324 0.45,-0.321 0.439,-0.321L0.164,-0.321L0.171,-0.33L0.171,-0.071L0.165,-0.078L0.484,-0.078C0.495,-0.078 0.505,-0.074 0.513,-0.066C0.521,-0.058 0.525,-0.049 0.525,-0.039C0.525,-0.027 0.521,-0.018 0.513,-0.011C0.505,-0.004 0.495,-0 0.484,-0L0.128,-0C0.117,-0 0.107,-0.004 0.099,-0.012C0.091,-0.02 0.088,-0.029 0.088,-0.041L0.088,-0.66C0.088,-0.671 0.091,-0.68 0.099,-0.688C0.107,-0.696 0.117,-0.7 0.128,-0.7Z" style="fill:white;fill-rule:nonzero;"/>
                    </g>
                    <g transform="matrix(204.369,0,0,190,637.829,535.303)">
                        <path d="M0.474,-0.079C0.485,-0.079 0.495,-0.075 0.503,-0.067C0.511,-0.06 0.515,-0.05 0.515,-0.039C0.515,-0.028 0.511,-0.018 0.503,-0.011C0.495,-0.004 0.485,-0 0.474,-0L0.128,-0C0.116,-0 0.107,-0.004 0.099,-0.012C0.091,-0.02 0.088,-0.029 0.088,-0.041L0.088,-0.66C0.088,-0.671 0.092,-0.68 0.1,-0.688C0.108,-0.696 0.118,-0.7 0.13,-0.7C0.141,-0.7 0.151,-0.696 0.159,-0.688C0.167,-0.68 0.171,-0.671 0.171,-0.66L0.171,-0.061L0.151,-0.079L0.474,-0.079Z" style="fill:white;fill-rule:nonzero;"/>
                    </g>
                </g>
                <g id="Image" transform="matrix(1.2727,0,0,2.5862,-1049.21,1851)">
                    <g transform="matrix(2.01264,0.526226,-0.526226,2.01264,-733.528,-1343.63)">
                        <path d="M756.22,512.87C749.153,512.183 742.036,512.183 734.969,512.87L730.243,521.897C722.881,523.024 715.666,524.957 708.727,527.662L700.121,522.207C693.657,525.146 687.494,528.704 681.717,532.833L682.138,543.014C676.326,547.67 671.044,552.952 666.388,558.764L656.206,558.343C652.078,564.12 648.519,570.284 645.581,576.747L651.036,585.354C648.331,592.292 646.397,599.508 645.271,606.869L636.243,611.595C635.556,618.662 635.556,625.779 636.243,632.846L645.271,637.572C646.397,644.934 648.331,652.149 651.036,659.087L645.581,667.694C648.519,674.158 652.078,680.321 656.206,686.098L666.388,685.677C671.044,691.489 676.326,696.771 682.138,701.427L681.717,711.609C687.494,715.737 693.657,719.295 700.121,722.234L708.727,716.779C715.666,719.484 722.881,721.417 730.243,722.544L734.969,731.572C742.036,732.258 749.153,732.258 756.22,731.572L760.946,722.544C768.307,721.417 775.522,719.484 782.461,716.779L791.068,722.234C797.531,719.295 803.695,715.737 809.472,711.609L809.051,701.427C814.863,696.771 820.145,691.489 824.801,685.677L834.982,686.098C839.11,680.321 842.669,674.158 845.608,667.694L840.152,659.087C842.858,652.149 844.791,644.934 845.917,637.572L854.945,632.846C855.632,625.779 855.632,618.662 854.945,611.595L845.917,606.869C844.791,599.508 842.858,592.292 840.152,585.354L845.608,576.747C842.669,570.284 839.11,564.12 834.982,558.343L824.801,558.764C820.145,552.952 814.863,547.67 809.051,543.014L809.472,532.833C803.695,528.704 797.531,525.146 791.068,522.207L782.461,527.662C775.522,524.957 768.307,523.024 760.946,521.897L756.22,512.87Z" style="fill:rgb(37,125,220);"/>
                    </g>
                    <g transform="matrix(1.98743,0,0,1.98743,48.2437,-1301.64)">
                        <path d="M190.602,912.448L130.085,854.405L185.078,812.283L164.39,793.487L230.505,757.861L307.97,836.381C307.082,839.669 306.048,842.918 304.87,846.118L294.477,848.513C291.387,855.67 287.519,862.465 282.942,868.775L286.188,878.935C281.5,884.703 276.264,890.002 270.554,894.76L260.355,891.637C254.101,896.29 247.354,900.241 240.235,903.417L237.966,913.839C231.022,916.49 223.838,918.462 216.515,919.727L209.243,911.923C203.054,912.644 196.816,912.819 190.602,912.448Z" style="fill:url(#_Linear1);"/>
                    </g>
                    <g transform="matrix(2.0803,0,0,2.0803,70.6377,-118.322)">
                        <path d="M165.571,204.131C165.684,204.662 166.017,205.121 166.488,205.393C168.841,206.759 176.335,211.086 176.335,211.086L176.335,222.105C176.335,222.187 176.318,222.268 176.283,222.342L176.102,222.733C175.419,224.207 173.775,224.976 172.206,224.554L170.308,224.044C168.699,223.611 166.979,223.952 165.657,224.966C164.334,225.98 163.559,227.552 163.559,229.218L163.559,229.22C163.559,230.887 164.335,232.459 165.658,233.473C166.981,234.487 168.701,234.827 170.311,234.393L172.391,233.833C173.841,233.442 175.362,234.146 176.002,235.504L176.261,236.055C176.31,236.159 176.335,236.272 176.335,236.387L176.335,247.356L144.924,265.492L113.513,247.356L113.513,211.086L144.924,192.95C144.924,192.95 153.506,197.905 155.961,199.322C156.416,199.585 156.96,199.651 157.465,199.503C158.372,199.22 159.165,198.817 159.846,198.286C161.47,197.43 162.69,195.907 162.706,194.05C162.706,194.042 162.707,194.031 162.707,193.991C162.716,193.005 163.22,192.089 164.048,191.554C164.877,191.02 165.887,190.744 166.82,191.061C167.304,191.225 167.717,191.486 168.073,191.826C168.766,192.487 169.193,193.655 169.112,194.61C169.031,195.565 168.491,196.422 167.665,196.908C166.071,197.847 165.265,199.609 165.304,201.402C165.323,202.251 165.38,203.185 165.571,204.131Z" style="fill:white;"/>
                    </g>
                    <g transform="matrix(-1.04015,1.80159,-1.80159,-1.04015,1004.72,219.582)">
                        <path d="M165.571,204.131C165.684,204.662 166.017,205.121 166.488,205.393C168.841,206.759 176.335,211.086 176.335,211.086L176.335,222.105C176.335,222.187 176.318,222.268 176.283,222.342L176.102,222.733C175.419,224.207 173.775,224.976 172.206,224.554L170.308,224.044C168.699,223.611 166.979,223.952 165.657,224.966C164.334,225.98 163.559,227.552 163.559,229.218L163.559,229.22C163.559,230.887 164.335,232.459 165.658,233.473C166.981,234.487 168.701,234.827 170.311,234.393L172.391,233.833C173.841,233.442 175.362,234.146 176.002,235.504L176.261,236.055C176.31,236.159 176.335,236.272 176.335,236.387L176.335,247.356L144.924,265.492L113.513,247.356L113.513,211.086L144.924,192.95C144.924,192.95 153.487,197.894 155.953,199.318C156.411,199.582 156.959,199.647 157.466,199.495C158.368,199.206 159.155,198.795 159.865,198.333C161.302,197.201 162.69,195.891 162.706,194.035C162.706,194.027 162.706,193.992 162.707,193.991C162.716,193.005 163.22,192.089 164.048,191.554C164.877,191.02 165.887,190.742 166.82,191.061C167.291,191.222 167.72,191.46 168.073,191.826C168.738,192.516 169.193,193.655 169.112,194.61C169.031,195.565 168.491,196.422 167.665,196.908C166.071,197.847 165.265,199.609 165.304,201.402C165.323,202.251 165.38,203.185 165.571,204.131Z" style="fill:white;"/>
                    </g>
                    <g transform="matrix(-1.04529,-1.79862,1.79862,-1.04529,246.294,860.064)">
                        <path d="M165.571,204.131C165.684,204.662 166.017,205.121 166.488,205.393C168.841,206.759 176.335,211.086 176.335,211.086L176.335,222.105C176.335,222.187 176.318,222.268 176.283,222.342L176.102,222.733C175.419,224.207 173.775,224.976 172.206,224.554L170.308,224.044C168.699,223.611 166.979,223.952 165.657,224.966C164.334,225.98 163.559,227.552 163.559,229.218L163.559,229.22C163.559,230.887 164.335,232.459 165.658,233.473C166.981,234.487 168.701,234.827 170.311,234.393L172.391,233.833C173.841,233.442 175.362,234.146 176.002,235.504L176.261,236.055C176.31,236.159 176.335,236.272 176.335,236.387L176.335,247.356L144.924,265.492L113.513,247.356L113.513,211.086L144.924,192.95C144.924,192.95 153.541,197.925 155.976,199.331C156.402,199.577 156.906,199.651 157.385,199.537C158.329,199.31 159.159,199.023 159.911,198.585C160.92,197.997 162.691,195.903 162.707,194.047C162.707,194.039 162.708,194.035 162.707,193.991C162.716,193.005 163.22,192.089 164.048,191.554C164.877,191.02 165.886,190.745 166.82,191.061C167.295,191.222 167.703,191.488 168.073,191.826C168.781,192.472 169.193,193.655 169.112,194.61C169.031,195.565 168.491,196.422 167.665,196.908C166.071,197.847 165.265,199.609 165.304,201.402C165.323,202.251 165.38,203.185 165.571,204.131Z" style="fill:white;"/>
                    </g>
                </g>
            </g>
        </g>
    </g>
    <defs>
        <linearGradient id="_Linear1" x1="0" y1="0" x2="1" y2="0" gradientUnits="userSpaceOnUse" gradientTransform="matrix(93.3418,86.3658,-86.3658,93.3418,182.007,806.404)"><stop offset="0" style="stop-color:rgb(26,92,163);stop-opacity:1"/><stop offset="1" style="stop-color:rgb(33,116,206);stop-opacity:1"/></linearGradient>
    </defs>
</svg>
